<svg width="33" height="33" viewBox="0 0 33 33" fill="none" xmlns="http://www.w3.org/2000/svg">
<path d="M21.8674 4.46507C23.4156 4.4697 24.8991 5.08677 25.9938 6.18152C27.0886 7.27627 27.7056 8.75975 27.7103 10.308V21.9925C27.7056 23.5407 27.0886 25.0241 25.9938 26.1189C24.8991 27.2136 23.4156 27.8307 21.8674 27.8353H10.1829C8.63467 27.8307 7.1512 27.2136 6.05644 26.1189C4.96169 25.0241 4.34462 23.5407 4.34 21.9925V10.308C4.34462 8.75975 4.96169 7.27627 6.05644 6.18152C7.1512 5.08677 8.63467 4.4697 10.1829 4.46507H21.8674ZM21.8674 2.1283H10.1829C5.68397 2.1283 2.00322 5.80905 2.00322 10.308V21.9925C2.00322 26.4914 5.68397 30.1721 10.1829 30.1721H21.8674C26.3663 30.1721 30.047 26.4914 30.047 21.9925V10.308C30.047 5.80905 26.3663 2.1283 21.8674 2.1283Z" fill="white"/>
<path d="M23.6201 10.308C23.2735 10.308 22.9346 10.2052 22.6464 10.0126C22.3581 9.81999 22.1335 9.54624 22.0008 9.22597C21.8682 8.9057 21.8335 8.55329 21.9011 8.21329C21.9687 7.87329 22.1356 7.56098 22.3808 7.31586C22.6259 7.07073 22.9382 6.9038 23.2782 6.83617C23.6182 6.76854 23.9706 6.80325 24.2909 6.93591C24.6112 7.06857 24.8849 7.29322 25.0775 7.58146C25.2701 7.8697 25.3729 8.20857 25.3729 8.55523C25.3734 8.78554 25.3284 9.01368 25.2405 9.22656C25.1526 9.43943 25.0235 9.63285 24.8606 9.79571C24.6978 9.95856 24.5043 10.0876 24.2915 10.1756C24.0786 10.2635 23.8505 10.3085 23.6201 10.308ZM16.0252 11.476C16.9496 11.476 17.8533 11.7502 18.622 12.2638C19.3907 12.7774 19.9898 13.5074 20.3435 14.3615C20.6973 15.2156 20.7899 16.1554 20.6095 17.0621C20.4292 17.9688 19.984 18.8017 19.3303 19.4554C18.6766 20.1091 17.8437 20.5542 16.937 20.7346C16.0303 20.9149 15.0905 20.8224 14.2364 20.4686C13.3823 20.1148 12.6523 19.5157 12.1387 18.7471C11.6251 17.9784 11.351 17.0747 11.351 16.1502C11.3523 14.911 11.8452 13.7228 12.7215 12.8465C13.5978 11.9703 14.7859 11.4774 16.0252 11.476ZM16.0252 9.13927C14.6385 9.13927 13.283 9.55045 12.1301 10.3208C10.9771 11.0912 10.0785 12.1862 9.54787 13.4672C9.01723 14.7483 8.87839 16.158 9.14891 17.518C9.41943 18.878 10.0872 20.1272 11.0677 21.1077C12.0482 22.0882 13.2974 22.7559 14.6574 23.0265C16.0174 23.297 17.427 23.1581 18.7081 22.6275C19.9892 22.0969 21.0842 21.1982 21.8545 20.0453C22.6249 18.8924 23.0361 17.5369 23.0361 16.1502C23.0361 14.2908 22.2975 12.5075 20.9826 11.1927C19.6678 9.87792 17.8846 9.13927 16.0252 9.13927Z" fill="white"/>
</svg>
