<svg width="33" height="33" viewBox="0 0 33 33" fill="none" xmlns="http://www.w3.org/2000/svg">
<path d="M31.0485 7.66822C29.9214 8.15795 28.7289 8.4806 27.5086 8.62596C28.791 7.87503 29.7554 6.68203 30.221 5.27072C29.0085 5.9797 27.6842 6.47715 26.3048 6.74177C25.724 6.13303 25.0254 5.64875 24.2516 5.31839C23.4778 4.98802 22.6448 4.81846 21.8034 4.82002C18.3969 4.82002 15.6401 7.53676 15.6401 10.8857C15.6376 11.3516 15.691 11.816 15.7991 12.2692C13.3563 12.1546 10.9643 11.5315 8.7762 10.4396C6.58806 9.34767 4.65194 7.81104 3.0917 5.928C2.54433 6.85077 2.25485 7.90361 2.25351 8.97651C2.25351 11.0798 3.35085 12.939 5.00782 14.0282C4.02611 14.0049 3.06453 13.745 2.20469 13.2707V13.3458C2.20469 16.2879 4.33301 18.7355 7.14991 19.2926C6.6202 19.4338 6.07434 19.5054 5.52613 19.5055C5.13713 19.5061 4.74902 19.4684 4.36744 19.3928C5.15054 21.8028 7.42973 23.5555 10.1296 23.6056C7.93575 25.2963 5.24232 26.2102 2.47261 26.2034C1.98097 26.2027 1.4898 26.1734 1.00156 26.1158C3.8192 27.915 7.09448 28.8667 10.4376 28.8576C21.7903 28.8576 27.9925 19.6119 27.9925 11.5931C27.9925 11.3302 27.9856 11.0673 27.9731 10.8106C29.1769 9.95433 30.2183 8.8902 31.0485 7.66822Z" fill="white"/>
</svg>
